USFL
nRows=109
nColumns=2
inDegrees=yes
endheader
time	med_gas_r	
3.86492	 48.868000	
3.93649	 48.862367	
4.00806	 48.834684	
4.07964	 48.849765	
4.15121	 48.841792	
4.22278	 48.818898	
4.29435	 48.775837	
4.36593	 48.759854	
4.4375	 48.755549	
4.50907	 48.699297	
4.58065	 48.602418	
4.65222	 48.677267	
4.72379	 48.690000	
4.79536	 48.685196	
4.86694	 48.642682	
4.93851	 48.595480	
5.01008	 48.488279	
5.08165	 48.525333	
5.15323	 48.581370	
5.2248	 48.528080	
5.29637	 48.504025	
5.36794	 48.536525	
5.43952	 46.913703	
5.51109	 46.998209	
5.58266	 47.053534	
5.65423	 47.417770	
5.72581	 46.277649	
5.79738	 46.549656	
5.86895	 46.668207	
5.94052	 46.642451	
6.0121	 45.535300	
6.08367	 45.460904	
6.15524	 45.688217	
6.22681	 40.366444	
6.29839	 40.467239	
6.36996	 38.541525	
6.44153	 38.510969	
6.5131	 38.367007	
6.58468	 34.505344	
6.65625	 30.954206	
6.72782	 29.291090	
6.7994	 29.422993	
6.87097	 29.234375	
6.94254	 29.082887	
7.01411	 28.988890	
7.08569	 28.886851	
7.15726	 28.746265	
7.22883	 28.594828	
7.3004	 28.551366	
7.37198	 28.527813	
7.44355	 28.505007	
7.51512	 28.386682	
7.58669	 28.276893	
7.65827	 28.302912	
7.72984	 28.218596	
7.80141	 28.132158	
7.87298	 28.111369	
7.94456	 28.099503	
8.01613	 28.056412	
8.0877	 28.096349	
8.15927	 28.106071	
8.23085	 28.078941	
8.30242	 28.128518	
8.37399	 28.141883	
8.44556	 28.184203	
8.51714	 28.185486	
8.58871	 28.158005	
8.66028	 28.206273	
8.73185	 28.203663	
8.80343	 28.148520	
8.875	 28.092780	
8.94657	 28.081575	
9.01815	 28.051038	
9.08972	 28.055756	
9.16129	 28.035397	
9.23286	 28.040023	
9.30444	 28.078769	
9.37601	 28.038650	
9.44758	 28.035556	
9.51915	 28.027278	
9.59073	 28.050483	
9.6623	 28.062236	
9.73387	 28.053184	
9.80544	 28.090785	
9.87702	 28.083661	
9.94859	 28.073942	
10.0202	 28.081278	
10.0917	 28.025031	
10.1633	 28.038350	
10.2349	 28.013981	
10.3065	 27.974783	
10.378	 27.907396	
10.4496	 27.896489	
10.5212	 27.956014	
10.5927	 27.990688	
10.6643	 28.041343	
10.7359	 28.032852	
10.8075	 28.069494	
10.879	 28.068735	
10.9506	 28.134922	
11.0222	 28.284623	
11.0937	 28.405432	
11.1653	 28.538606	
11.2369	 28.574613	
11.3085	 28.667219	
11.38	 28.830958	
11.4516	 28.944447	
11.5232	 28.893202	
11.5948	 31.186671	
